<?xml version="1.0" encoding="utf-8"?>
<!-- Generator: Adobe Illustrator 22.1.0, SVG Export Plug-In . SVG Version: 6.00 Build 0)  -->
<svg version="1.1" id="Capa_1" xmlns="http://www.w3.org/2000/svg" xmlns:xlink="http://www.w3.org/1999/xlink" x="0px" y="0px"
	 viewBox="0 0 564.5 308.1" style="enable-background:new 0 0 564.5 308.1;" xml:space="preserve">
<style type="text/css">
	.st0{fill:#C60005;}
</style>
<g>
	<path d="M176.6,1.5c-6.8,3.9-13.7,7.6-20.3,11.8c-17.5,11.2-34.8,22.7-50.7,36.1C87.5,64.7,70.8,81.2,56.3,100
		c-14.1,18.3-25.7,37.9-33.5,59.7c-5.5,15.2-8.6,30.9-8.4,47.1c0.4,28.5,11,52.6,32.4,71.6c12.2,10.8,25.9,18.9,41.3,24.2
		c4.9,1.7,9.7,3.5,14.9,5.4c-2.3,0-4.3,0.2-6.3,0c-6.2-0.8-12.4-1.4-18.5-2.6c-5.7-1.1-11.5-2.6-17-4.5c-10.4-3.6-20-8.9-28.7-15.8
		c-11.8-9.4-19.9-21.5-25.4-35.4c-6.9-17.5-8.3-35.6-6.2-54.1c1.6-14.9,5.5-29.1,10.7-43.1c8.8-23.8,22.3-44.7,38.4-64.1
		c15.7-18.9,33.9-35.2,54.1-49.3C119,28.7,134.6,19.4,151.3,12c7.9-3.5,15.8-6.9,23.7-10.4c0.5-0.2,1-0.3,1.4-0.4
		C176.6,1.2,176.6,1.4,176.6,1.5z"/>
	<path d="M286.5,119.4c0,5.4,0,10.2,0,15.7c3.5-4.4,6.4-8.4,9.6-12.1c3.9-4.4,10.1-5.1,14.8-1.7c3.6,2.6,5,6.6,6.2,10.7
		c0.2,0.8,0.4,1.7,0.8,3.1c1.8-2.5,3.2-4.7,4.7-6.7c2.6-3.5,5.3-6.7,9.5-8.4c5.5-2.1,10.7-0.1,13.6,5.1c2.9,5.3,3.8,11.2,4,17.1
		c0.5,13,0.5,26,0.8,39c0,2,0.3,4.1,0.7,6.1c0.5,3.1,2,5.5,5.5,6c0.7,0.1,1.1,1.3,1.7,2c-0.6,0.4-1.3,1.2-1.9,1.2
		c-7,0.1-14.1,0-21.1,0.1c-2.2,0-2.3-1.1-2-2.9c1-0.2,2-0.2,3-0.6c3.3-1.1,5-3.2,5-6.9c-0.2-15.1-0.4-30.3-0.8-45.4
		c-0.1-2.3-0.8-4.8-1.7-7c-2.3-5.2-7.5-6.7-12-3.3c-2.9,2.2-5.2,5.1-7.7,7.8c-0.5,0.6-0.8,1.6-0.8,2.5c0.3,15,0.5,29.9,0.9,44.9
		c0.1,5,1.4,6.2,6.3,7.6c0.8,0.2,1.4,1.2,2,1.8c-0.8,0.5-1.6,1.3-2.4,1.3c-5.5,0.1-10.9,0.1-16.4,0.1c-2.2,0-4.4,0-6.8,0
		c-0.1-1-0.2-1.9-0.2-2.9c1.7-0.5,3.4-0.7,4.6-1.6c2.1-1.4,3.2-3.5,3.2-6.2c-0.2-14.4-0.4-28.8-0.7-43.3c0-2-0.6-4.1-1-6.1
		c-1.9-7.8-8.3-10.1-14.6-5.1c-4.1,3.3-6.8,7.1-6.5,13c0.6,13.1,0.5,26.2,0.7,39.2c0,1.8,0.4,3.6,0.8,5.3c0.6,2.6,2.5,4,5.8,4.2
		c1.2,0.1,2.4,0.3,1.9,1.7c-0.2,0.7-1.2,1.8-1.9,1.8c-6.1,0.1-12.1,0.1-18.2,0c-1.7,0-3.3-0.2-5-0.3c-0.6-1.5-0.8-2.7,1.2-3
		c4.1-0.7,5.6-3.5,5.7-7.3c0.1-6.2,0.1-12.4,0-18.5c-0.1-10-0.4-20.1-0.6-30.1c0-1.3-0.2-2.7-0.6-3.9c-1-3.2-2.2-3.7-5.5-3
		c-0.6,0.1-1.4-0.4-2.1-0.6c0.2-0.8,0.2-2,0.8-2.3c4.3-2.7,8.7-5.2,13.1-7.7C283.6,119.6,284.8,119.7,286.5,119.4z"/>
	<path class="st0" d="M83.2,168.2c0.1-11.4,2.7-21.9,11.7-29.6c8.2-7.1,18.7-6.1,25.8,2.1c10.5,12.2,11.9,26.3,7.7,41.4
		c-1.6,5.7-4.4,10.8-8.8,14.8c-9,8-20.8,6.7-28.4-3.1c-5-6.4-7.3-13.8-8-21.8C83.1,170.7,83.2,169.5,83.2,168.2z"/>
	<path d="M162.7,281.7c-6.5,1.5-13,3.2-19.6,4.3c-7.7,1.3-15.6,2.2-23.4,2.8c-4.3,0.3-8.7-0.2-13.1-0.6c-8.6-0.9-17-2.7-25.1-5.9
		c-17.7-7.2-30.1-19.7-37.8-37.1c-7.1-16.1-8.8-33-7.4-50.4c1.9-23.2,9.1-44.8,20.3-65.1c8.7-15.8,19.8-29.9,33-42.3
		c0.8-0.7,1.6-1.4,2.8-1.8c-2.3,3.3-4.5,6.6-6.8,9.8c-14.5,20.8-26.3,42.9-33.5,67.2c-5.2,17.5-7.8,35.3-5.1,53.6
		c3.8,26.4,17.6,46,41.7,57.6c10,4.8,20.8,7.8,31.9,8.2c10.6,0.4,21.3,0.2,31.9-0.1c3.3-0.1,6.6-0.9,10-1.5
		C162.6,280.9,162.7,281.3,162.7,281.7z"/>
	<path d="M221.1,227.3c-2.1,1.6-4.2,3.1-6.3,4.8c-10.2,8-21.3,14.6-33.4,19.4c-9.2,3.6-18.8,7.1-28.5,8.8c-19,3.3-37.6,1.6-54.8-8
		c-16.9-9.4-27.3-23.6-31.3-42.4c-2.7-12.4-2.3-24.9,0.6-37.3c0.1-0.3,0.2-0.6,0.3-1.1c0.5,6.2,0.6,12.3,1.5,18.3
		c3.1,20.4,13.2,36.1,31.3,46.5c10.1,5.8,21.1,8.4,32.6,9.6c12.4,1.3,24.8,0.4,37.1-2c14.3-2.8,28.2-6.7,41.4-13
		c3-1.4,6.1-2.7,9.2-4C220.9,227.1,221,227.2,221.1,227.3z"/>
	<path d="M537.3,92.2c-0.3-1-0.6-1.8-0.9-2.7c5-2.9,9.9-5.8,14.9-8.5c0.7-0.4,1.7-0.1,3.1-0.1c0,4.7-0.1,9.3,0,13.8
		c0.4,25.6,0.8,51.3,1.2,76.9c0.1,3.5,0.2,7,0.7,10.4c0.9,6.1,1.8,6.7,7.6,5.5c0.7,1.1,1.1,2-0.5,3c-4.4,2.6-8.6,5.5-13,8.2
		c-2,1.3-3.2,0.6-3.3-1.8c-0.1-2.5,0-5,0-7.4c-0.3-0.1-0.5-0.2-0.8-0.3c-0.7,0.8-1.6,1.6-2.2,2.5c-2.9,4.3-7.3,6.7-11.9,7.4
		c-5.3,0.8-10-2-13.2-6.5c-3.7-5.2-6.6-10.9-7.9-17.2c-3.3-15.8-1.8-31,6.3-45.2c2.7-4.8,6.6-8.6,12-10.1c4.4-1.3,8.7-0.5,12.6,2.2
		c1.2,0.8,2.2,1.7,3.7,2.9c0-4.5,0.1-8.7,0-12.8c-0.3-5.6-0.5-11.3-1.2-16.8C543.7,91,541.8,90.2,537.3,92.2z M546.7,161.7
		c-0.2,0-0.4,0-0.6,0c0-6,0.1-12,0-18c-0.2-6.5-2.1-12.3-7.1-16.8c-3.8-3.4-8.1-3.2-11.7,0.3c-3.3,3.3-5.2,7.5-6.3,12
		c-2.7,10.3-2.2,20.6,0,30.9c1.3,6.1,3,12.2,7.8,16.7c3.2,3,7.4,4,10.8,2.6c4.4-1.9,7.2-5.9,7.2-10.2
		C546.7,173.3,546.7,167.5,546.7,161.7z"/>
	<path d="M195,197c0-1.5,0-2.3,0-3.3c0.6-0.1,1.2-0.2,1.8-0.4c4.7-1.4,6.9-3.7,5.7-8.3c-2.1-8.3-4.5-16.5-7-24.8
		c-0.2-0.6-1.3-1.2-1.9-1.2c-9-0.1-18.1-0.2-27.1-0.1c-0.7,0-1.7,0.9-1.9,1.6c-2,7.2-4,14.5-5.6,21.8c-1.6,7.5,0.3,10,7.7,11.3
		c0.7,2,0.4,3.1-2.2,3.1c-6.1,0-12.2,0.4-18.3,0.4c-1,0-2.4-0.7-2.8-1.5c-0.7-1.4,0.5-2.2,1.8-2.7c4.1-1.3,6.2-4.5,7.3-8.3
		c2.9-10,5.8-20.1,8.6-30.1c5.9-21.2,11.8-42.4,17.7-63.6c0.5-1.9,1.2-3.7,1.9-5.6c0.3-0.8,1-1.6,1.5-2.3c0.5,0.8,1.2,1.4,1.5,2.3
		c2.6,8,5,16,7.5,24.1c7.1,23.1,14.3,46.1,21.5,69.2c0.8,2.5,1.8,4.8,2.9,7.2c1.6,3.7,4.1,6.4,8,7.7c0.7,0.2,1.5,1.3,1.4,1.9
		c-0.1,0.6-1.2,1.5-1.8,1.5C213.8,197.1,204.5,197,195,197z M179.9,109c-0.3,0-0.6,0-0.9,0c-4.1,14.6-8.3,29.1-12.5,44.1
		c9,0,17.7,0,26.8,0C188.7,138.2,184.3,123.6,179.9,109z"/>
	<path d="M410.3,158c-0.1,11.6-2.3,21.3-7.6,30.1c-2.9,4.8-6.9,8.7-12.3,10.1c-7.4,1.8-14.2,0.1-19.4-5.9c-5.2-6-8.1-13.2-9.6-20.9
		c-3-15.2-1.7-29.8,7.2-43c4.4-6.5,10.4-10,18.4-8.9s13.3,6,16.9,12.9C408.2,140.8,410.5,149.8,410.3,158z M400.1,162.6
		c-0.3-3-0.6-8.3-1.5-13.6c-1-6.4-2.7-12.7-6.2-18.1c-2.3-3.6-5.5-6.4-10.3-6c-4.8,0.3-7.2,3.6-8.9,7.5c-0.7,1.5-1.2,3.2-1.5,4.8
		c-2.6,14.6-1.8,29.1,3.3,43.1c1.2,3.3,3,6.5,5.3,9.2c2.9,3.4,7.5,5,11.4,2.3c2.2-1.6,4.2-3.9,5.3-6.4
		C400.1,178.9,399.8,171.9,400.1,162.6z"/>
	<path d="M465.6,149.8c-0.1,10.9,1.8,21,8.1,29.8c2.9,4,7.2,6.7,12.4,6c2.6-0.3,5.8-1.6,7.4-3.6c2.6-3.1,4.2-7.2,6.1-10.8
		c0.4-0.8,0.7-1.7,1.7-2.6c0.2,0.8,0.7,1.6,0.6,2.3c-1.2,9.3-4.3,17.8-11.2,24.3c-2.3,2.1-6.1,3.9-9.1,3.8c-4.2-0.2-8.7-1.5-12-4.9
		c-6.3-6.5-9.6-14.4-10.8-23.2c-1.7-12.7-1.4-25.2,3.4-37.3c2.2-5.4,5.6-9.9,10.9-12.8c0.8-0.4,1.6-0.7,2.5-0.9
		c11.8-1.8,17.8,1.2,22.3,12.4c1.9,4.7,2.6,10,3.7,15c0.4,1.6-0.3,2.4-2.2,2.4c-6-0.1-12,0-18,0
		C476.3,149.8,471.1,149.8,465.6,149.8z M489.5,144.8c0.5-4.6-1-11.3-3.2-14.7c-3.4-5.3-10.6-6.2-15-1.7s-5.7,10.1-5.8,16.4
		C473.7,144.8,481.6,144.8,489.5,144.8z"/>
	<path d="M228.4,196.8c0-1.2,0-2.1,0-2.9c1.2-0.3,2.5-0.5,3.6-1c2.9-1.3,4.2-3.6,4.1-6.9c-0.3-12.6-0.4-25.2-0.7-37.9
		c-0.1-4.1-0.1-8.3-0.7-12.3c-0.8-5.8-2-6.4-7.5-4.7c-0.8-1.5-1.3-2.6,0.9-3.8c4.2-2.1,8.1-4.8,12.2-7c1.1-0.6,2.4-0.6,4.1-1.1
		c0,5.7,0,10.8,0,15.9c0.2,0,0.4,0.1,0.6,0.1c1.2-2.4,2.1-5,3.5-7.3c1.8-2.7,3.7-5.5,6.2-7.5c3.1-2.4,7.5-0.8,9.3,2.9
		c1.6,3.4,1.4,6.8,0,10.2c-0.9,2.2-3.3,2.8-5.4,1.5c-1.4-0.8-2.6-1.9-3.8-2.9c-2.2-1.8-3.9-1.8-5.4,0.6c-2.5,4-4.7,8.3-4.6,13.2
		c0.2,12.1,0.4,24.2,0.6,36.3c0,0.5,0,1.1,0.1,1.6c0.9,7.2,2.2,8.9,8.8,10.1c0.6,3,0.3,3.1-2.8,3c-6.5-0.2-13.1-0.1-19.6-0.1
		C230.9,196.8,229.8,196.8,228.4,196.8z"/>
	<path d="M442.9,193.7c0,1,0,1.9,0,3.1c-6.9,0-13.6,0-20.4,0c-1.1,0-2.1-0.1-3.2,0c-2.7,0.1-2.7,0.1-2.6-2.9
		c0.4-0.1,0.9-0.3,1.4-0.4c4.3-1,6.4-3.3,6.3-7.7c-0.2-16-0.6-32.1-1-48.1c0-0.2,0-0.4,0-0.5c-0.7-6.2-1.6-6.9-7.6-6.3
		c-1.2-1.5-0.5-2.5,0.9-3.4c4.1-2.4,8.1-4.9,12.2-7.1c1-0.6,2.3-0.6,3.9-0.9c0,5.6,0,10.8,0,15.9c0.2,0,0.5,0.1,0.7,0.1
		c0.9-1.9,1.6-3.8,2.6-5.6c1.5-2.6,3.1-5.2,5-7.6c3-3.8,9.3-3.7,11.2,1.5c1.2,3.3,1.4,6.7,0,9.9c-1.1,2.5-2.9,3-5.2,1.6
		c-1.4-0.9-2.7-2-4-3.1c-2.1-1.7-3.7-1.7-5.2,0.5c-2.7,4.2-5,8.7-4.9,14c0.2,12.1,0.5,24.2,0.8,36.3c0,1.6,0.4,3.2,0.8,4.7
		C435.9,191.6,438.5,193.8,442.9,193.7z"/>
	<path d="M258,5.2c0.1-0.3,0.1-0.5,0.2-0.5c7.8,0.1,15.6-0.3,23.3,0.6c7.1,0.8,10.8,6.3,9.8,12.4c-0.5,3-2.2,5.1-4.6,6.6
		c-1.2,0.8-2.5,1.3-3.9,2.1c1.5,0.6,2.8,1.1,4.1,1.8c3.6,2,6.3,4.8,7,9c1.1,6.4-2.2,12-8.9,12.8c-8.9,1.1-17.9,0.8-27,1.1
		c0.1-0.8,0.1-1.1,0.2-1.1c3.6-1,4.8-1.2,4.9-7c0.2-10.1,0.1-20.3,0-30.4C263.2,7.5,262.7,7,258,5.2z M269.7,28.1
		c0,6.1-0.1,11.6,0,17.1c0,2,1.4,3.3,3.5,3.4s4.1,0.2,6.2-0.1c4.2-0.5,7.1-3.7,7.5-7.9c0.5-5.9-2.7-10.5-8.6-11.8
		C275.6,28.3,272.7,28.3,269.7,28.1z M269.6,6.9c0,6.4,0,12.7,0,19c10.1,0.9,15.4-2.4,15.4-9.4C285,9.3,280,6.1,269.6,6.9z"/>
	<path d="M429,50.2c-0.1,0.3-0.1,0.5-0.1,0.5c-7.3-0.1-14.7,0.3-21.9-0.6c-6.9-0.9-11.2-7.2-11.1-14.2c0.1-6.8,4.3-12.7,10.6-13.7
		c2.8-0.5,5.9,0.5,8.8,1c1.1,0.2,2.1,0.9,3.4,1.6c0-6.7,0-13.1,0-19.5c0-1.8-1.1-2.7-2.9-2.9c-0.7-0.1-1.5-0.1-2.2-0.2
		c0-0.3,0-0.6-0.1-0.8c3.5-0.4,7-0.9,11-1.4c0,1.4,0,2.4,0,3.4c0,13.3,0,26.7,0,40C424.4,48.5,424.4,48.5,429,50.2z M418.8,37.3
		c0-2.5,0-5,0-7.5c0-0.7,0-1.5-0.4-2c-2.1-2.6-4.7-4.4-8.2-4.3c-3.4,0.1-5.7,2-7,5c-2,4.7-1.7,9.5,0.4,14.1s6,6.7,11,6.6
		c3-0.1,4.1-1.2,4.2-4.3C418.8,42.3,418.8,39.8,418.8,37.3z"/>
	<path d="M247.9,277.5c0-5.1,0-9.9,0-14.7c1,2.6,1.8,5.3,3,7.8c2.1,4.1,5.6,5.8,9.6,5.3c3.1-0.4,5.4-2.5,5.9-6.1
		c0.6-4-0.3-7.6-3.5-10.4c-3.5-3.1-6.8-6.4-10.4-9.2c-7.2-5.6-6.4-16.2-3.1-21.5c2.6-4.1,8.3-5.2,12.8-2.5c2.9,1.8,3.4,1.7,5.8-1.3
		c0,5.7,0,11,0,16.3c-0.9-2.6-1.6-5.4-2.7-8c-1.3-2.8-3.5-4.8-6.6-5.4c-2.5-0.4-4.8,0.1-6.4,2.4c-1.6,2.4-2.3,4.8-1.2,7.6
		c1.6,3.9,5,6.1,8,8.8c3.5,3.2,7.3,6.2,9.8,10.1c4.5,6.8,1.6,18-4.9,21.3c-3.6,1.8-6.9,0.8-10.2-0.8
		C251.8,276.2,250,275.7,247.9,277.5z"/>
	<path d="M386.8,50.6c-5,0-10.1,0-15.1,0c0.1-0.3,0.1-0.6,0.2-0.6c4.7-1.3,4.7-1.3,4.7-6.3c0-3.9,0-7.9,0-11.8c0-2.7-0.9-5-3.5-6.2
		c-2.7-1.3-5.2-0.5-7.5,1.3s-3.8,3.8-3.4,7.1c0.3,2.8,0.1,5.7,0.1,8.6c0,5.6,0,5.6,5.2,8c-5.6,0-10.5,0-15.5,0
		c0.1-0.3,0.1-0.6,0.1-0.6c5.2-1,4.3-2.1,4.4-6.1c0.1-4.5,0-9,0-13.4c0-5.3,0-5.3-4.7-7.6c3.3-0.4,6.6-0.9,10.3-1.3c0,2,0,3.5,0,5.7
		c1.2-1.1,2-1.7,2.7-2.4c3.5-2.9,7.3-4.2,11.7-2.3c4.3,1.9,5.6,5.7,5.6,10.1c0,4,0,8.1,0,12.1c0,3.7,0.3,4,3.9,4.9
		c0.3,0.1,0.6,0.3,0.8,0.4C386.8,50.3,386.8,50.5,386.8,50.6z"/>
	<path d="M367.3,242.6c2.4,0,4.9,0,8,0c0,2.8,0,5.8,0,8.7c0.1,5.4,0.2,10.7,0.4,16.1c0.1,3.8,1.4,6.2,3.5,6.6c2.3,0.5,5.8-2,6.9-5
		c0.2-0.6,0.2-1.4,0.2-2.1c-0.1-6.3-0.3-12.5-0.3-18.8c0-2.7-1.4-4.1-4.3-4.5c0.2-0.3,0.3-0.5,0.5-0.8c2.5,0,4.9,0,8,0
		c0,3.3,0,6.9,0,10.5c0,5.3,0,10.6,0.2,15.8c0.1,2.2,0,5,4.2,4.6c-2.2,3-5,4-8,5.4c-0.2-2.5-0.3-4.6-0.4-7.3c-1.7,2-2.9,3.6-4.3,5
		c-3.5,3.5-7.1,2.9-8.6-1.8c-1.2-3.6-1.5-7.5-1.8-11.3c-0.3-4.2-0.2-8.4-0.2-12.6C371.2,245.8,371.2,245.8,367.3,242.6z"/>
	<path d="M454.5,47.6c-2.3,2.5-4.9,4.1-8.4,3.7c-3.6-0.3-6.6-2.9-7.1-6.2c-0.6-3.4,0.8-6.1,4.5-7.6c3-1.2,6.1-2.1,9.1-3
		c1.7-0.5,2.2-1.4,2.1-3.1c-0.3-3.1-1.8-5.2-4.5-6c-2.8-0.8-6.4,0.3-8.2,2.7c-0.6,0.8-1,1.6-1.6,2.4c-0.2,0-0.5-0.1-0.7-0.1
		c0-0.6-0.2-1.3,0-1.9c1.5-4.5,6.7-7.3,12-6.5c4.9,0.7,8.2,4.2,8.4,9.3c0.1,4.1,0,8.2,0.1,12.4c0,0.8-0.1,1.7,0.1,2.4
		c0.2,0.8,0.8,1.4,1.3,2.1c0.6-0.5,1.1-1,1.7-1.5c0.4-0.4,0.7-0.8,1.2-1.4c0.6,2.8-0.5,4.9-2.8,5.8
		C458.9,52.2,456.9,51.3,454.5,47.6z M454.7,35.3c-2.9,1.2-5.5,2-7.9,3.4c-2.3,1.3-2.7,3.7-1.9,6.1c0.7,2.1,2.2,3.6,4.6,3.2
		c2.3-0.4,4.8-1.3,5.2-3.9C455,41.4,454.7,38.7,454.7,35.3z"/>
	<path d="M530.1,243c3.2,0,6.7,0,10.4,0c-0.1,0.3-0.1,0.9-0.2,1c-3.2,1-2.9,3.3-2.1,5.6c2.1,6.2,4.4,12.4,6.6,18.6
		c0.3,0,0.5,0,0.8-0.1c1.1-4.1,2.3-8.2,3.4-12.2c0.6-2.2,1.2-4.3,1.7-6.5c0.8-3.4,0.6-3.8-2.1-5.6c1.4-1.1,4.3-1.3,7-0.5
		c-5.9,12.7-7.8,26.8-12.1,40c-1.1,3.5-2.9,6.8-4.7,10.1c-1,1.7-2.9,2.4-4.9,1.5c-1.9-0.8-3-3.5-2.3-5.5c0.6-1.7,1.6-2.5,3.5-1.5
		c3,1.5,4.4,1.1,5.5-2c1-2.7,1.7-5.5,2.5-8.2c0.2-0.6,0.1-1.4-0.1-2c-2.7-8-5.4-15.9-8.4-23.8C533.5,248.8,531.7,246,530.1,243z"/>
	<path d="M319.6,50.6c-5.2,0-10.4,0-15.7,0c0.1-0.4,0.2-0.6,0.3-0.7c4.6-0.9,4.8-1.2,4.8-6c0-11.6,0-23.3,0-34.9
		c0-5.9,0-5.9-5.4-6.9c0-0.2-0.1-0.5-0.1-0.7c3.5-0.4,7.1-0.9,11-1.4c0,1.4,0,2.4,0,3.5c0,13.2,0,26.3,0,39.5
		C314.5,48.7,314.5,48.7,319.6,50.6z"/>
	<path d="M292.9,255.8c-0.1,5.4,1.1,10.2,4.3,14.3c3.1,3.9,8.2,3.2,10.7-1.1c0.4-0.8,0.8-1.5,1.5-2.8c-0.1,5.1-1.9,8.7-5.3,11.5
		c-2.2,1.8-6.5,1.8-8.5-0.7c-2-2.4-3.7-5.3-4.7-8.3c-2.2-7-2-14.2,1-21c2.7-6,7.2-7.7,12.3-5.3c2.8,1.3,3.9,4,4.5,6.9
		c1.4,7.8,1.2,6.3-5,6.4C300.3,255.9,296.8,255.8,292.9,255.8z M304.9,253.5c-0.5-2.4-0.7-4.4-1.4-6.3c-1.6-4-5.8-4.8-8.1-1.3
		c-1.4,2.1-2,4.8-3.1,7.6C296.8,253.5,300.5,253.5,304.9,253.5z"/>
	<path d="M525,33.7c-6.8,0-13.6,0-20.4,0c-0.7,6.2,2.1,12,6.7,14.4c4.5,2.3,7.8,1.4,14.7-4.7c-0.4,1.3-0.4,2.2-0.8,2.7
		c-3.9,5.6-13.1,7.1-19.7,3.2c-6.4-3.8-8.8-11.9-5.6-19c3.1-6.8,10.7-10.1,17.4-7.7C521.6,24,526.1,28.9,525,33.7z M519.7,31.9
		c-0.1-5.4-3.2-8.6-7.9-8.4c-4.4,0.2-7.5,3.7-7.2,8.4C509.6,31.9,514.6,31.9,519.7,31.9z"/>
	<path d="M483.8,21.6c0,12.6,0.3,24.7-0.1,36.8c-0.3,8.1-7.5,13.1-15.5,11c0.7-0.1,1.3-0.3,2-0.4c4.6-0.7,6.9-2.8,7.7-7.3
		c0.4-2.6,0.5-5.3,0.5-8c0.1-8.2,0-16.5,0-24.7c0-4.2-0.2-4.4-4.5-5c-0.3,0-0.6-0.2-0.9-0.3c0-0.2,0-0.5,0-0.7
		C476.5,22.5,480,22.1,483.8,21.6z"/>
	<path d="M349.5,265.3c-0.3,4.7-1.6,9-5.3,12c-3.1,2.6-7,1.9-9.7-1.8c-4.1-5.7-4.6-12.3-4.2-19c0.3-4.7,1.6-9.2,4.9-12.8
		c2.5-2.7,5.2-3.2,8.6-1.6c3.6,1.7,5.8,4.9,5.3,8.1c-0.2,0.9-1.1,2.3-1.7,2.3c-0.9,0-2-0.9-2.6-1.7s-0.8-2-0.9-3
		c-0.3-2.1-1.1-3.6-3.4-3.8s-3.9,0.8-4.9,3c-2,4.6-1.8,9.5-1.2,14.3c0.3,2.2,1,4.4,1.7,6.5c0.8,2.4,2.2,4.3,4.9,4.7
		c3.2,0.4,5.3-1.1,6.7-3.8C348.4,267.6,348.9,266.4,349.5,265.3z"/>
	<path d="M537.2,51.2c0-3.1,0-6.3,0-9.4c0.2-0.1,0.4-0.2,0.6-0.3c0.4,0.6,0.9,1.2,1.1,1.9c1.3,3.3,3.7,5.5,7.2,6.1
		c2.7,0.5,5.1-0.7,6-2.9c0.9-2.3,0.1-4.6-2.5-6.1c-2.3-1.4-4.8-2.4-7.2-3.6c-4.7-2.5-6.3-6-4.5-10.1c1.7-4,6.2-5.9,10.8-4.8
		c1.8,0.5,3.7,0.3,6.2,0.5c0,1.7,0,4.3,0,6.8c0,0.3-0.4,0.8-0.7,0.9c-0.3,0-0.8-0.3-1-0.6c-0.3-0.5-0.4-1.2-0.6-1.8
		c-1.3-3.1-4.2-5-7.2-4.4c-1.4,0.3-3.2,1.5-3.5,2.6c-0.3,1.3,0.4,3.5,1.5,4.3c2.1,1.7,4.8,2.7,7.2,4c2.9,1.5,5.3,3.4,5.7,6.9
		c0.7,6-4.7,11-10.7,9.8c-0.7-0.1-1.4-0.3-2.1-0.6c-2.1-0.8-4.3-2.2-6,1.3C537.5,51.7,537.3,51.5,537.2,51.2z"/>
	<path d="M424.6,277.6c-3.9,0-7.7,0-11.7,0c0.1-0.4,0.2-0.8,0.3-0.8c3.8-0.9,3.6-3.8,3.5-6.8c-0.2-6.3-0.2-12.5-0.5-18.8
		c-0.2-3.9-0.4-3.9-4.4-5.4c2.9-1.7,5.3-3.1,8.4-4.8c0.2,2.8,0.3,4.9,0.4,7.1c0.2,0.1,0.4,0.1,0.6,0.2c0.7-1.3,1.2-2.6,2-3.8
		c1-1.7,2.1-3.6,4.6-2.6c2.4,0.9,2.5,3.1,2.3,5.2c-0.2,2.1-1.3,2.6-3.1,1.4c-3.3-2.1-3.8-2.1-5.2,1.7c-0.7,1.8-1.1,3.8-1.1,5.7
		c-0.1,4.5,0.2,8.9,0.3,13.4c0,3.3-0.3,6.6,4.3,7.7C425,277.2,424.8,277.4,424.6,277.6z"/>
	<path d="M502.7,232.1c0.1,3.1,0.3,6.4,0.4,9.5c1.5,1.9,5.7-1.4,5.4,3.5c-1.7,0.2-3.4,0.3-5.1,0.5c0,4.7,0,9.3,0,13.9
		c0,3.6,0,7.1,0.3,10.7c0.3,4.1,1.9,4.8,5.9,2.7c-1,1.6-1.7,3.3-2.9,4.6c-1.8,1.9-4.7,1.5-5.6-1.1c-0.9-2.2-1.4-4.7-1.5-7
		c-0.2-6.9-0.2-13.8-0.2-20.7c0-1.1-0.1-2.3-0.2-3.5c-1.4-0.2-2.6-0.3-3.4-0.4C498.1,240.6,500.4,236.4,502.7,232.1z"/>
	<path d="M343.9,50.6c-5.7,0-10.8,0-15.9,0c0-0.1-0.1-0.3-0.1-0.4c0.5-0.2,1-0.4,1.5-0.5c3.4-0.5,3.9-0.9,3.9-4.5
		c0-5.5,0-10.9,0-16.4c0-4-0.3-4.4-4.3-4.9c-0.3,0-0.6-0.2-1-0.3c0-0.2,0-0.5-0.1-0.7c3.5-0.4,6.9-0.9,10.9-1.4c0,1.3,0,2.2,0,3.2
		c0,5.9,0,11.8,0,17.7C338.7,48.1,338.7,48.1,343.9,50.6z"/>
	<path d="M456.6,276.9c2.9-0.8,3.6-2.8,3.5-5.4c-0.1-6.7-0.1-13.4-0.3-20.2c-0.1-2.4,0-5.2-4.3-4.6c0-0.3,0.1-0.7,0.1-1
		c2.4-1.5,4.8-3,7.7-4.8c0.2,1.6,0.4,2.7,0.5,3.8c0.1,7.6,0.1,15.2,0.2,22.9c0,2,0.1,4,0.5,5.9c0.3,1.1,1.4,1.9,2.2,2.8
		c0.3,0.4,0.6,0.7,0.9,1.1c-0.5,0.3-0.9,0.9-1.4,0.9c-3.2-0.2-6.3-0.4-9.5-0.7C456.7,277.4,456.6,277.1,456.6,276.9z"/>
	<path d="M477.3,10.3c0.2-1.9,2-3.4,4-3c2.1,0.3,3.1,1.7,3,3.7s-1.9,3.4-3.9,3.2C478.4,14,477.1,12.3,477.3,10.3z"/>
	<path d="M339.6,10.7c0,1.9-1.7,3.6-3.6,3.5c-2,0-3.5-1.6-3.4-3.6c0.1-2.1,1.4-3.2,3.4-3.3C338,7.2,339.6,8.8,339.6,10.7z"/>
	<path d="M464,227.2c-0.3,1-0.3,2-0.7,2.7c-0.8,1.5-2,1.7-3.2,0.4c-1.5-1.8-1.6-4-0.7-6c0.8-1.7,2.9-1.7,3.8,0
		C463.6,225.1,463.7,226.2,464,227.2z"/>
</g>
</svg>
