<?xml version="1.0" encoding="utf-8"?>
<!-- Generator: Adobe Illustrator 22.1.0, SVG Export Plug-In . SVG Version: 6.00 Build 0)  -->
<svg version="1.1" id="Capa_1" xmlns="http://www.w3.org/2000/svg" xmlns:xlink="http://www.w3.org/1999/xlink" x="0px" y="0px"
	 viewBox="0 0 225 306.9" style="enable-background:new 0 0 225 306.9;" xml:space="preserve">
<style type="text/css">
	.st0{fill:#C60005;}
</style>
<g>
	<path d="M176.6,0.3c-6.8,3.9-13.7,7.6-20.3,11.8c-17.5,11.2-34.8,22.7-50.7,36.1C87.5,63.5,70.8,80,56.3,98.8
		c-14.1,18.3-25.7,37.9-33.5,59.7c-5.5,15.2-8.6,30.9-8.4,47.1c0.4,28.5,11,52.6,32.4,71.6C59,288,72.7,296.1,88.1,301.4
		c4.9,1.7,9.7,3.5,14.9,5.4c-2.3,0-4.3,0.2-6.3,0c-6.2-0.8-12.4-1.4-18.5-2.6c-5.7-1.1-11.5-2.6-17-4.5c-10.4-3.6-20-8.9-28.7-15.8
		c-11.8-9.4-19.9-21.5-25.4-35.4c-6.9-17.5-8.3-35.6-6.2-54.1c1.6-14.9,5.5-29.1,10.7-43.1c8.8-23.8,22.3-44.7,38.4-64.1
		C65.7,68.3,83.9,52,104.1,37.9c14.9-10.4,30.5-19.7,47.2-27.1c7.9-3.5,15.8-6.9,23.7-10.4c0.5-0.2,1-0.3,1.4-0.4
		C176.6,0,176.6,0.2,176.6,0.3z"/>
	<path class="st0" d="M83.2,167c0.1-11.4,2.7-21.9,11.7-29.6c8.2-7.1,18.7-6.1,25.8,2.1c10.5,12.2,11.9,26.3,7.7,41.4
		c-1.6,5.7-4.4,10.8-8.8,14.8c-9,8-20.8,6.7-28.4-3.1c-5-6.4-7.3-13.8-8-21.8C83.1,169.5,83.2,168.3,83.2,167z"/>
	<path d="M162.7,280.5c-6.5,1.5-13,3.2-19.6,4.3c-7.7,1.3-15.6,2.2-23.4,2.8c-4.3,0.3-8.7-0.2-13.1-0.6c-8.6-0.9-17-2.7-25.1-5.9
		c-17.7-7.2-30.1-19.7-37.8-37.1c-7.1-16.1-8.8-33-7.4-50.4c1.9-23.2,9.1-44.8,20.3-65.1c8.7-15.8,19.8-29.9,33-42.3
		c0.8-0.7,1.6-1.4,2.8-1.8c-2.3,3.3-4.5,6.6-6.8,9.8c-14.5,20.8-26.3,42.9-33.5,67.2c-5.2,17.5-7.8,35.3-5.1,53.6
		c3.8,26.4,17.6,46,41.7,57.6c10,4.8,20.8,7.8,31.9,8.2c10.6,0.4,21.3,0.2,31.9-0.1c3.3-0.1,6.6-0.9,10-1.5
		C162.6,279.7,162.7,280.1,162.7,280.5z"/>
	<path d="M221.1,226.1c-2.1,1.6-4.2,3.1-6.3,4.8c-10.2,8-21.3,14.6-33.4,19.4c-9.2,3.6-18.8,7.1-28.5,8.8c-19,3.3-37.6,1.6-54.8-8
		c-16.9-9.4-27.3-23.6-31.3-42.4c-2.7-12.4-2.3-24.9,0.6-37.3c0.1-0.3,0.2-0.6,0.3-1.1c0.5,6.2,0.6,12.3,1.5,18.3
		c3.1,20.4,13.2,36.1,31.3,46.5c10.1,5.8,21.1,8.4,32.6,9.6c12.4,1.3,24.8,0.4,37.1-2c14.3-2.8,28.2-6.7,41.4-13
		c3-1.4,6.1-2.7,9.2-4C220.9,225.9,221,226,221.1,226.1z"/>
	<path d="M195,195.8c0-1.5,0-2.3,0-3.3c0.6-0.1,1.2-0.2,1.8-0.4c4.7-1.4,6.9-3.7,5.7-8.3c-2.1-8.3-4.5-16.5-7-24.8
		c-0.2-0.6-1.3-1.2-1.9-1.2c-9-0.1-18.1-0.2-27.1-0.1c-0.7,0-1.7,0.9-1.9,1.6c-2,7.2-4,14.5-5.6,21.8c-1.6,7.5,0.3,10,7.7,11.3
		c0.7,2,0.4,3.1-2.2,3.1c-6.1,0-12.2,0.4-18.3,0.4c-1,0-2.4-0.7-2.8-1.5c-0.7-1.4,0.5-2.2,1.8-2.7c4.1-1.3,6.2-4.5,7.3-8.3
		c2.9-10,5.8-20.1,8.6-30.1c5.9-21.2,11.8-42.4,17.7-63.6c0.5-1.9,1.2-3.7,1.9-5.6c0.3-0.8,1-1.6,1.5-2.3c0.5,0.8,1.2,1.4,1.5,2.3
		c2.6,8,5,16,7.5,24.1c7.1,23.1,14.3,46.1,21.5,69.2c0.8,2.5,1.8,4.8,2.9,7.2c1.6,3.7,4.1,6.4,8,7.7c0.7,0.2,1.5,1.3,1.4,1.9
		c-0.1,0.6-1.2,1.5-1.8,1.5C213.8,195.9,204.5,195.8,195,195.8z M179.9,107.8c-0.3,0-0.6,0-0.9,0c-4.1,14.6-8.3,29.1-12.5,44.1
		c9,0,17.7,0,26.8,0C188.7,137,184.3,122.4,179.9,107.8z"/>
</g>
</svg>
